<?xml version="1.0" encoding="UTF-8" standalone="no"?>
<!DOCTYPE svg PUBLIC "-//W3C//DTD SVG 1.1//EN" "http://www.w3.org/Graphics/SVG/1.1/DTD/svg11.dtd">
<svg width="100%" height="100%" viewBox="0 0 425 245" version="1.1" xmlns="http://www.w3.org/2000/svg" xmlns:xlink="http://www.w3.org/1999/xlink" xml:space="preserve" xmlns:serif="http://www.serif.com/" style="fill-rule:evenodd;clip-rule:evenodd;stroke-linecap:round;stroke-linejoin:round;stroke-miterlimit:1.5;">
    <rect id="Artboard1" x="0" y="0" width="424.894" height="244.447" style="fill:none;"/>
    <g id="Artboard11" serif:id="Artboard1">
        <g id="About-to-Leave" serif:id="About to Leave">
            <path d="M285.277,25.277L5.277,165.277L133.277,229.277L413.277,89.277L285.277,25.277Z" style="fill:rgb(240,62,62);"/>
            <g>
                <path d="M221.277,25.277L53.663,109.084C49.034,111.398 49.974,115.625 55.759,118.518L162.795,172.036C168.58,174.929 177.034,175.398 181.663,173.084L349.277,89.277L221.277,25.277Z" style="fill:white;fill-opacity:0.15;stroke:black;stroke-width:1px;"/>
                <path d="M349.277,89.277L356.891,85.47C361.52,83.156 360.58,78.929 354.795,76.036L247.759,22.518C241.974,19.625 233.52,19.156 228.891,21.47L221.277,25.277L349.277,89.277Z" style="fill:rgb(233,236,239);stroke:black;stroke-width:1px;"/>
                <path d="M261.055,41.464L262.133,42.003L269.926,39.741L269.949,39.753L265.42,43.646L266.504,44.188L277.18,40.983L275.815,40.301L268.397,42.662L268.373,42.65L272.791,38.789L271.854,38.32L264.125,40.526L264.102,40.515L268.83,36.809L267.465,36.126L261.055,41.464Z" style="fill-rule:nonzero;"/>
                <path d="M269.674,45.773L270.969,46.421L279.512,42.149L278.217,41.502L269.674,45.773Z" style="fill-rule:nonzero;"/>
                <path d="M272.768,47.32L274.063,47.968L280.133,44.933L280.156,44.944L277.947,49.91L279.172,50.522L287.715,46.251L286.42,45.603L280.35,48.639L280.326,48.627L282.529,43.658L281.311,43.049L272.768,47.32Z" style="fill-rule:nonzero;"/>
                <path d="M280.977,51.425L283.877,52.875C284.518,53.195 285.199,53.395 285.922,53.475C286.629,53.567 287.309,53.575 287.961,53.499C288.207,53.47 288.434,53.436 288.641,53.399C288.848,53.358 289.059,53.3 289.274,53.224C289.703,53.075 290.377,52.771 291.295,52.312C292.158,51.881 292.744,51.566 293.053,51.369C293.35,51.166 293.555,50.933 293.668,50.669C294.043,49.903 293.656,49.229 292.508,48.647L289.52,47.153L280.977,51.425ZM289.59,48.413L291.137,49.186C291.809,49.507 292.076,49.881 291.94,50.309C291.916,50.496 291.768,50.682 291.494,50.865C291.209,51.043 290.696,51.317 289.953,51.688C289.192,52.069 288.654,52.32 288.342,52.441C288.022,52.562 287.697,52.633 287.369,52.652C286.545,52.736 285.77,52.597 285.043,52.233L283.496,51.46L289.59,48.413Z" style="fill-rule:nonzero;"/>
                <path d="M292.514,52.922C291.537,53.41 290.906,53.755 290.621,53.956C290.469,54.063 290.356,54.159 290.281,54.243C290.215,54.327 290.149,54.417 290.082,54.513C289.895,54.813 289.879,55.153 290.035,55.532C290.172,55.913 290.569,56.275 291.225,56.619C291.92,56.951 292.651,57.152 293.416,57.223C294.166,57.297 294.838,57.285 295.432,57.187C295.783,57.156 296.158,57.068 296.557,56.924C296.951,56.777 297.637,56.46 298.613,55.972C299.606,55.475 300.244,55.131 300.529,54.937C300.811,54.742 300.983,54.557 301.045,54.381C301.24,54.084 301.268,53.746 301.127,53.367C300.987,52.984 300.58,52.621 299.908,52.277C299.229,51.945 298.508,51.745 297.746,51.677C296.981,51.602 296.297,51.612 295.696,51.706C295.36,51.745 294.992,51.833 294.594,51.97C294.199,52.108 293.506,52.426 292.514,52.922ZM293.815,53.572C294.654,53.152 295.258,52.882 295.625,52.761C295.969,52.643 296.317,52.581 296.668,52.573C296.981,52.554 297.307,52.57 297.647,52.623C297.979,52.676 298.301,52.776 298.613,52.925C298.914,53.083 299.121,53.247 299.235,53.417C299.332,53.583 299.358,53.742 299.311,53.894C299.295,54.07 299.174,54.246 298.947,54.422C298.701,54.603 298.158,54.904 297.319,55.324C296.479,55.744 295.881,56.014 295.526,56.133C295.166,56.25 294.811,56.312 294.459,56.32C294.154,56.344 293.84,56.329 293.516,56.276C293.16,56.227 292.828,56.126 292.52,55.972C292.215,55.819 292.018,55.656 291.928,55.482C291.815,55.316 291.778,55.155 291.817,54.999C291.832,54.823 291.961,54.647 292.203,54.472C292.438,54.292 292.975,53.992 293.815,53.572Z" style="fill-rule:nonzero;"/>
                <path d="M297.002,59.437L298.08,59.976L305.873,57.715L305.897,57.726L301.367,61.62L302.451,62.162L313.127,58.957L311.762,58.274L304.344,60.636L304.321,60.624L308.738,56.763L307.801,56.294L300.072,58.5L300.049,58.488L304.778,54.782L303.412,54.1L297.002,59.437Z" style="fill-rule:nonzero;"/>
            </g>
            <path d="M293.378,38.54L298.346,37.292L298.37,37.304L295.874,39.788L293.378,38.54ZM293.846,41.833L295.212,42.516L300.649,36.692L299.565,36.15L287.917,38.868L289.288,39.554L291.854,38.927L295.094,40.547L293.846,41.833Z" style="fill:white;fill-rule:nonzero;"/>
            <path d="M296.126,42.973L299.723,44.772C300.395,45.108 301.18,45.275 302.079,45.275C302.962,45.287 303.776,45.11 304.522,44.745C304.967,44.523 305.268,44.261 305.424,43.96C305.553,43.657 305.446,43.359 305.102,43.067L305.126,43.055C305.489,43.119 305.827,43.157 306.139,43.169C306.444,43.185 306.717,43.177 306.96,43.146C307.456,43.073 307.876,42.947 308.219,42.768C308.907,42.424 309.247,42.041 309.239,41.619C309.231,41.201 308.811,40.78 307.979,40.357L304.669,38.701L296.126,42.973ZM303.204,42.721C303.676,42.965 303.901,43.204 303.878,43.439C303.85,43.675 303.661,43.881 303.309,44.057C302.965,44.229 302.557,44.321 302.085,44.335C301.608,44.351 301.126,44.24 300.637,44.004L298.645,43.008L301.212,41.725L303.204,42.721ZM306.678,40.86C307.143,41.101 307.376,41.332 307.376,41.555C307.364,41.787 307.186,41.989 306.842,42.161C306.499,42.333 306.1,42.419 305.647,42.419C305.178,42.431 304.708,42.318 304.235,42.082L302.366,41.148L304.809,39.926L306.678,40.86Z" style="fill:white;fill-rule:nonzero;"/>
            <path d="M307.422,44.35C306.446,44.838 305.815,45.183 305.53,45.384C305.378,45.491 305.264,45.587 305.19,45.671C305.124,45.755 305.057,45.845 304.991,45.941C304.803,46.241 304.788,46.581 304.944,46.96C305.081,47.341 305.477,47.703 306.133,48.047C306.829,48.379 307.559,48.58 308.325,48.65C309.075,48.725 309.747,48.713 310.34,48.615C310.692,48.584 311.067,48.496 311.465,48.352C311.86,48.205 312.546,47.888 313.522,47.4C314.514,46.903 315.153,46.559 315.438,46.365C315.719,46.17 315.891,45.984 315.954,45.809C316.149,45.512 316.176,45.174 316.036,44.795C315.895,44.412 315.489,44.049 314.817,43.705C314.137,43.373 313.417,43.173 312.655,43.105C311.889,43.03 311.206,43.04 310.604,43.134C310.268,43.173 309.901,43.261 309.503,43.398C309.108,43.536 308.415,43.854 307.422,44.35ZM308.723,45C309.563,44.58 310.167,44.31 310.534,44.189C310.878,44.071 311.225,44.009 311.577,44.001C311.889,43.982 312.215,43.998 312.555,44.051C312.887,44.104 313.21,44.204 313.522,44.353C313.823,44.511 314.03,44.675 314.143,44.845C314.241,45.011 314.266,45.17 314.219,45.322C314.204,45.498 314.083,45.674 313.856,45.85C313.61,46.031 313.067,46.332 312.227,46.752C311.387,47.172 310.79,47.442 310.434,47.561C310.075,47.678 309.719,47.74 309.368,47.748C309.063,47.772 308.749,47.757 308.424,47.704C308.069,47.655 307.737,47.554 307.428,47.4C307.124,47.247 306.926,47.084 306.837,46.91C306.723,46.744 306.686,46.583 306.725,46.427C306.741,46.251 306.87,46.075 307.112,45.9C307.346,45.72 307.883,45.42 308.723,45Z" style="fill:white;fill-rule:nonzero;"/>
            <path d="M313.499,48.765C312.608,49.218 312.192,49.723 312.251,50.279C312.282,50.838 312.721,51.333 313.569,51.765C314.448,52.196 315.444,52.419 316.557,52.433C317.651,52.452 318.655,52.241 319.569,51.8L325.217,48.976L323.922,48.328L318.415,51.082C317.825,51.369 317.217,51.509 316.592,51.501C315.944,51.497 315.368,51.369 314.864,51.117C314.36,50.865 314.108,50.579 314.108,50.259C314.085,49.942 314.36,49.637 314.934,49.342L320.442,46.588L319.147,45.941L313.499,48.765Z" style="fill:white;fill-rule:nonzero;"/>
            <path d="M319.768,54.794L321.069,55.444L328.458,51.75L330.796,52.919L331.95,52.342L325.973,49.354L324.819,49.931L327.157,51.1L319.768,54.794Z" style="fill:white;fill-rule:nonzero;"/>
            <path d="M328.645,59.233L329.946,59.883L337.335,56.189L339.672,57.358L340.827,56.78L334.85,53.792L333.696,54.369L336.034,55.538L328.645,59.233Z" style="fill:white;fill-rule:nonzero;"/>
            <path d="M336.96,59.118C335.983,59.607 335.352,59.951 335.067,60.152C334.915,60.26 334.801,60.356 334.727,60.44C334.661,60.524 334.594,60.613 334.528,60.709C334.34,61.01 334.325,61.35 334.481,61.729C334.618,62.109 335.014,62.472 335.671,62.816C336.366,63.148 337.096,63.349 337.862,63.419C338.612,63.493 339.284,63.482 339.878,63.384C340.229,63.353 340.604,63.265 341.003,63.12C341.397,62.974 342.083,62.656 343.059,62.168C344.051,61.672 344.69,61.327 344.975,61.134C345.256,60.939 345.428,60.753 345.491,60.577C345.686,60.28 345.713,59.942 345.573,59.564C345.432,59.181 345.026,58.817 344.354,58.474C343.674,58.142 342.954,57.942 342.192,57.873C341.426,57.799 340.743,57.809 340.141,57.902C339.805,57.942 339.438,58.029 339.04,58.166C338.645,58.305 337.952,58.622 336.96,59.118ZM338.26,59.769C339.1,59.349 339.704,59.078 340.071,58.957C340.415,58.84 340.762,58.777 341.114,58.77C341.426,58.75 341.753,58.767 342.092,58.819C342.424,58.872 342.747,58.973 343.059,59.121C343.36,59.279 343.567,59.443 343.68,59.613C343.778,59.779 343.803,59.939 343.756,60.091C343.741,60.267 343.62,60.442 343.393,60.618C343.147,60.8 342.604,61.101 341.764,61.521C340.924,61.941 340.327,62.21 339.971,62.329C339.612,62.446 339.256,62.509 338.905,62.517C338.6,62.54 338.286,62.525 337.962,62.473C337.606,62.424 337.274,62.322 336.965,62.168C336.661,62.016 336.463,61.853 336.374,61.679C336.26,61.513 336.223,61.352 336.262,61.195C336.278,61.02 336.407,60.844 336.649,60.668C336.883,60.488 337.421,60.189 338.26,59.769Z" style="fill:white;fill-rule:nonzero;"/>
            <path d="M343.176,66.498L348.631,69.226L349.856,68.613L345.696,66.533L353.014,62.874L351.719,62.227L343.176,66.498Z" style="fill:white;fill-rule:nonzero;"/>
            <path d="M349.85,69.835L355.305,72.563L356.53,71.95L352.37,69.87L354.878,68.616L358.428,70.392L359.577,69.817L356.026,68.042L358.463,66.823L362.624,68.903L363.848,68.291L358.393,65.564L349.85,69.835Z" style="fill:white;fill-rule:nonzero;"/>
            <path d="M361.094,72.399L366.063,71.15L366.087,71.162L363.59,73.647L361.094,72.399ZM361.563,75.692L362.928,76.374L368.366,70.55L367.282,70.008L355.633,72.727L357.004,73.412L359.571,72.785L362.811,74.405L361.563,75.692Z" style="fill:white;fill-rule:nonzero;"/>
            <path d="M365.108,77.464L366.116,77.968L377.483,75.108L376.112,74.423L367.663,76.702L367.639,76.691L372.204,72.469L370.833,71.783L365.108,77.464Z" style="fill:white;fill-rule:nonzero;"/>
            <path d="M369.854,79.837L375.309,82.565L376.534,81.952L372.374,79.872L374.881,78.618L378.432,80.394L379.581,79.819L376.03,78.044L378.467,76.825L382.628,78.905L383.852,78.293L378.397,75.566L369.854,79.837Z" style="fill:white;fill-rule:nonzero;"/>
            <path d="M298.905,106.463C297.749,105.885 296.06,105.791 295.135,106.253L227.676,139.983C226.751,140.445 226.939,141.29 228.095,141.868C229.251,142.446 230.94,142.54 231.865,142.078L299.324,108.348C300.249,107.886 300.061,107.041 298.905,106.463Z" style="fill:rgb(235,235,235);stroke:black;stroke-width:1px;"/>
        </g>
    </g>
</svg>
