<?xml version="1.0" encoding="UTF-8" standalone="no"?>
<!DOCTYPE svg PUBLIC "-//W3C//DTD SVG 1.1//EN" "http://www.w3.org/Graphics/SVG/1.1/DTD/svg11.dtd">
<svg width="100%" height="100%" viewBox="0 0 425 245" version="1.1" xmlns="http://www.w3.org/2000/svg" xmlns:xlink="http://www.w3.org/1999/xlink" xml:space="preserve" xmlns:serif="http://www.serif.com/" style="fill-rule:evenodd;clip-rule:evenodd;stroke-linecap:round;stroke-linejoin:round;stroke-miterlimit:1.5;">
    <rect id="Artboard1" x="0" y="0" width="424.894" height="244.447" style="fill:none;"/>
    <g id="Artboard11" serif:id="Artboard1">
        <g id="Positioned-and-Clipped" serif:id="Positioned and Clipped">
            <path d="M221.277,57.277L45.277,145.277L173.277,209.277L349.277,121.277L221.277,57.277Z" style="fill:rgb(240,62,62);"/>
            <path d="M220.892,57.469L349.277,121.662" style="fill:none;stroke:black;stroke-width:1px;stroke-dasharray:4,4,0,0;"/>
            <path d="M45.277,145.277L173.662,209.469" style="fill:none;stroke:black;stroke-width:1px;stroke-dasharray:4,4,0,0;"/>
            <path d="M349.277,121.277L413.277,89.277L285.277,25.277L221.277,57.277L349.277,121.277Z" style="fill:rgb(240,62,62);fill-opacity:0.2;"/>
            <path d="M133.277,229.277L173.277,209.277L45.277,145.277L5.277,165.277L133.277,229.277Z" style="fill:rgb(240,62,62);fill-opacity:0.2;"/>
            <path d="M221.277,41.277L45.277,129.277L173.277,193.277L349.277,105.277L221.277,41.277Z" style="fill:rgb(64,192,87);fill-opacity:0.9;"/>
            <g>
                <path d="M221.277,25.277L53.663,109.084C49.034,111.398 49.974,115.625 55.759,118.518L162.795,172.036C168.58,174.929 177.034,175.398 181.663,173.084L349.277,89.277L221.277,25.277Z" style="fill:white;fill-opacity:0.15;stroke:black;stroke-width:1px;"/>
                <path d="M349.277,89.277L356.891,85.47C361.52,83.156 360.58,78.929 354.795,76.036L247.759,22.518C241.974,19.625 233.52,19.156 228.891,21.47L221.277,25.277L349.277,89.277Z" style="fill:rgb(233,236,239);stroke:black;stroke-width:1px;"/>
                <path d="M261.055,41.464L262.133,42.003L269.926,39.741L269.949,39.753L265.42,43.646L266.504,44.188L277.18,40.983L275.815,40.301L268.397,42.662L268.373,42.65L272.791,38.789L271.854,38.32L264.125,40.526L264.102,40.515L268.83,36.809L267.465,36.126L261.055,41.464Z" style="fill-rule:nonzero;"/>
                <path d="M269.674,45.773L270.969,46.421L279.512,42.149L278.217,41.502L269.674,45.773Z" style="fill-rule:nonzero;"/>
                <path d="M272.768,47.32L274.063,47.968L280.133,44.933L280.156,44.944L277.947,49.91L279.172,50.522L287.715,46.251L286.42,45.603L280.35,48.639L280.326,48.627L282.529,43.658L281.311,43.049L272.768,47.32Z" style="fill-rule:nonzero;"/>
                <path d="M280.977,51.425L283.877,52.875C284.518,53.195 285.199,53.395 285.922,53.475C286.629,53.567 287.309,53.575 287.961,53.499C288.207,53.47 288.434,53.436 288.641,53.399C288.848,53.358 289.059,53.3 289.274,53.224C289.703,53.075 290.377,52.771 291.295,52.312C292.158,51.881 292.744,51.566 293.053,51.369C293.35,51.166 293.555,50.933 293.668,50.669C294.043,49.903 293.656,49.229 292.508,48.647L289.52,47.153L280.977,51.425ZM289.59,48.413L291.137,49.186C291.809,49.507 292.076,49.881 291.94,50.309C291.916,50.496 291.768,50.682 291.494,50.865C291.209,51.043 290.696,51.317 289.953,51.688C289.192,52.069 288.654,52.32 288.342,52.441C288.022,52.562 287.697,52.633 287.369,52.652C286.545,52.736 285.77,52.597 285.043,52.233L283.496,51.46L289.59,48.413Z" style="fill-rule:nonzero;"/>
                <path d="M292.514,52.922C291.537,53.41 290.906,53.755 290.621,53.956C290.469,54.063 290.356,54.159 290.281,54.243C290.215,54.327 290.149,54.417 290.082,54.513C289.895,54.813 289.879,55.153 290.035,55.532C290.172,55.913 290.569,56.275 291.225,56.619C291.92,56.951 292.651,57.152 293.416,57.223C294.166,57.297 294.838,57.285 295.432,57.187C295.783,57.156 296.158,57.068 296.557,56.924C296.951,56.777 297.637,56.46 298.613,55.972C299.606,55.475 300.244,55.131 300.529,54.937C300.811,54.742 300.983,54.557 301.045,54.381C301.24,54.084 301.268,53.746 301.127,53.367C300.987,52.984 300.58,52.621 299.908,52.277C299.229,51.945 298.508,51.745 297.746,51.677C296.981,51.602 296.297,51.612 295.696,51.706C295.36,51.745 294.992,51.833 294.594,51.97C294.199,52.108 293.506,52.426 292.514,52.922ZM293.815,53.572C294.654,53.152 295.258,52.882 295.625,52.761C295.969,52.643 296.317,52.581 296.668,52.573C296.981,52.554 297.307,52.57 297.647,52.623C297.979,52.676 298.301,52.776 298.613,52.925C298.914,53.083 299.121,53.247 299.235,53.417C299.332,53.583 299.358,53.742 299.311,53.894C299.295,54.07 299.174,54.246 298.947,54.422C298.701,54.603 298.158,54.904 297.319,55.324C296.479,55.744 295.881,56.014 295.526,56.133C295.166,56.25 294.811,56.312 294.459,56.32C294.154,56.344 293.84,56.329 293.516,56.276C293.16,56.227 292.828,56.126 292.52,55.972C292.215,55.819 292.018,55.656 291.928,55.482C291.815,55.316 291.778,55.155 291.817,54.999C291.832,54.823 291.961,54.647 292.203,54.472C292.438,54.292 292.975,53.992 293.815,53.572Z" style="fill-rule:nonzero;"/>
                <path d="M297.002,59.437L298.08,59.976L305.873,57.715L305.897,57.726L301.367,61.62L302.451,62.162L313.127,58.957L311.762,58.274L304.344,60.636L304.321,60.624L308.738,56.763L307.801,56.294L300.072,58.5L300.049,58.488L304.778,54.782L303.412,54.1L297.002,59.437Z" style="fill-rule:nonzero;"/>
            </g>
            <path id="ENTERING" d="M233.654,61.025L239.109,63.753L240.333,63.14L236.173,61.06L238.681,59.806L242.232,61.582L243.38,61.008L239.829,59.232L242.267,58.013L246.427,60.094L247.652,59.481L242.196,56.754L233.654,61.025Z" style="fill:white;fill-rule:nonzero;"/>
            <path d="M240.327,64.362L241.622,65.01L247.693,61.974L247.716,61.986L245.507,66.952L246.732,67.564L255.275,63.293L253.98,62.645L247.909,65.68L247.886,65.669L250.089,60.7L248.87,60.091L240.327,64.362Z" style="fill:white;fill-rule:nonzero;"/>
            <path d="M249.984,69.19L251.284,69.841L258.673,66.146L261.011,67.315L262.165,66.738L256.189,63.75L255.034,64.327L257.372,65.496L249.984,69.19Z" style="fill:white;fill-rule:nonzero;"/>
            <path d="M254.536,71.467L259.991,74.194L261.216,73.582L257.056,71.502L259.564,70.248L263.114,72.023L264.263,71.449L260.712,69.674L263.15,68.455L267.31,70.535L268.534,69.923L263.079,67.195L254.536,71.467Z" style="fill:white;fill-rule:nonzero;"/>
            <path d="M269.894,71.757L271.921,72.77C272.335,72.977 272.564,73.179 272.607,73.377C272.685,73.615 272.505,73.847 272.068,74.074C271.696,74.26 271.265,74.356 270.773,74.364C270.257,74.38 269.753,74.268 269.261,74.03L267.304,73.052L269.894,71.757ZM261.21,74.804L262.505,75.451L266.155,73.626L267.808,74.452L265.921,77.159L267.462,77.929L269.273,75.044C270.777,75.378 272.116,75.259 273.292,74.686C274.058,74.28 274.382,73.835 274.265,73.35C274.191,72.938 273.798,72.554 273.087,72.199L269.753,70.532L261.21,74.804Z" style="fill:white;fill-rule:nonzero;"/>
            <path d="M268.529,78.463L269.823,79.11L278.366,74.839L277.071,74.191L268.529,78.463Z" style="fill:white;fill-rule:nonzero;"/>
            <path d="M271.622,80.01L272.917,80.657L278.988,77.622L279.011,77.634L276.802,82.599L278.027,83.212L286.57,78.94L285.275,78.293L279.204,81.328L279.181,81.316L281.384,76.347L280.165,75.738L271.622,80.01Z" style="fill:white;fill-rule:nonzero;"/>
            <path d="M286.083,83.76L287.823,84.63L287.378,84.852C286.835,85.116 286.236,85.248 285.579,85.248C284.907,85.256 284.32,85.134 283.816,84.882C283.511,84.729 283.314,84.566 283.224,84.392C283.111,84.226 283.073,84.065 283.113,83.909C283.128,83.733 283.257,83.557 283.499,83.382C283.734,83.202 284.271,82.902 285.111,82.482C285.95,82.062 286.554,81.792 286.921,81.671C287.265,81.554 287.613,81.491 287.964,81.483C288.277,81.464 288.603,81.48 288.943,81.533C289.275,81.586 289.597,81.686 289.909,81.835C290.316,82.046 290.548,82.281 290.607,82.541C290.642,82.801 290.54,83.043 290.302,83.267L291.673,83.953C292.251,83.527 292.523,83.063 292.488,82.561C292.448,82.061 292.021,81.603 291.204,81.187C290.525,80.855 289.804,80.655 289.042,80.587C288.277,80.513 287.593,80.522 286.991,80.616C286.655,80.655 286.288,80.743 285.89,80.88C285.495,81.018 284.802,81.336 283.81,81.832C282.833,82.32 282.202,82.665 281.917,82.866C281.765,82.973 281.652,83.069 281.577,83.153C281.511,83.237 281.445,83.327 281.378,83.423C281.191,83.723 281.175,84.063 281.331,84.442C281.468,84.823 281.864,85.185 282.521,85.529C283.407,85.957 284.425,86.171 285.573,86.171C286.722,86.167 287.732,85.955 288.603,85.535L290.343,84.665L287.308,83.147L286.083,83.76Z" style="fill:white;fill-rule:nonzero;"/>
            <path d="M310.018,49.919L315.473,52.647L316.698,52.034L312.538,49.954L319.856,46.295L318.561,45.648L310.018,49.919Z" style="fill:white;fill-rule:nonzero;"/>
            <path d="M316.692,53.256L322.147,55.983L323.372,55.371L319.212,53.291L321.719,52.037L325.27,53.813L326.419,53.238L322.868,51.463L325.305,50.244L329.465,52.324L330.69,51.712L325.235,48.984L316.692,53.256Z" style="fill:white;fill-rule:nonzero;"/>
            <path d="M327.936,55.819L332.905,54.571L332.928,54.583L330.432,57.067L327.936,55.819ZM328.405,59.112L329.77,59.795L335.208,53.971L334.124,53.429L322.475,56.148L323.846,56.833L326.413,56.206L329.653,57.826L328.405,59.112Z" style="fill:white;fill-rule:nonzero;"/>
            <path d="M331.95,60.885L332.958,61.389L344.325,58.529L342.954,57.844L334.504,60.123L334.481,60.111L339.046,55.89L337.674,55.204L331.95,60.885Z" style="fill:white;fill-rule:nonzero;"/>
            <path d="M336.696,63.258L337.991,63.905L346.534,59.634L345.239,58.986L336.696,63.258Z" style="fill:white;fill-rule:nonzero;"/>
            <path d="M339.79,64.805L341.085,65.452L347.155,62.417L347.178,62.429L344.969,67.395L346.194,68.007L354.737,63.735L353.442,63.088L347.372,66.123L347.348,66.111L349.551,61.143L348.333,60.533L339.79,64.805Z" style="fill:white;fill-rule:nonzero;"/>
            <path d="M354.251,68.555L355.991,69.425L355.546,69.648C355.003,69.911 354.403,70.043 353.747,70.043C353.075,70.051 352.487,69.929 351.983,69.677C351.678,69.525 351.481,69.361 351.391,69.188C351.278,69.022 351.241,68.86 351.28,68.704C351.296,68.528 351.424,68.353 351.667,68.177C351.901,67.997 352.438,67.697 353.278,67.277C354.118,66.858 354.721,66.587 355.088,66.466C355.432,66.349 355.78,66.286 356.131,66.278C356.444,66.259 356.77,66.275 357.11,66.328C357.442,66.381 357.764,66.482 358.077,66.63C358.483,66.841 358.715,67.076 358.774,67.336C358.809,67.596 358.708,67.838 358.469,68.063L359.84,68.748C360.419,68.322 360.69,67.858 360.655,67.357C360.616,66.857 360.188,66.399 359.372,65.983C358.692,65.65 357.971,65.45 357.21,65.382C356.444,65.308 355.76,65.317 355.159,65.411C354.823,65.45 354.456,65.538 354.057,65.675C353.663,65.814 352.969,66.131 351.977,66.627C351.001,67.115 350.37,67.46 350.085,67.661C349.932,67.769 349.819,67.864 349.745,67.948C349.678,68.032 349.612,68.122 349.546,68.218C349.358,68.519 349.342,68.858 349.499,69.237C349.635,69.618 350.032,69.981 350.688,70.324C351.575,70.752 352.592,70.966 353.741,70.966C354.889,70.962 355.899,70.75 356.77,70.33L358.51,69.46L355.475,67.942L354.251,68.555Z" style="fill:white;fill-rule:nonzero;"/>
        </g>
    </g>
</svg>
