<?xml version="1.0" encoding="UTF-8" standalone="no"?>
<!DOCTYPE svg PUBLIC "-//W3C//DTD SVG 1.1//EN" "http://www.w3.org/Graphics/SVG/1.1/DTD/svg11.dtd">
<svg width="100%" height="100%" viewBox="0 0 425 245" version="1.1" xmlns="http://www.w3.org/2000/svg" xmlns:xlink="http://www.w3.org/1999/xlink" xml:space="preserve" xmlns:serif="http://www.serif.com/" style="fill-rule:evenodd;clip-rule:evenodd;stroke-linecap:round;stroke-linejoin:round;stroke-miterlimit:1.5;">
    <rect id="Artboard1" x="0" y="0" width="424.894" height="244.447" style="fill:none;"/>
    <clipPath id="_clip1">
        <rect id="Artboard11" serif:id="Artboard1" x="0" y="0" width="424.894" height="244.447"/>
    </clipPath>
    <g clip-path="url(#_clip1)">
        <g id="Unpositioned-and-Unclipped" serif:id="Unpositioned and Unclipped">
            <path d="M280,41.277L0,181.277L128,245.277L408,105.277L280,41.277Z" style="fill:rgb(240,62,62);"/>
            <path d="M305.676,65.451L311.131,68.179L312.356,67.567L308.196,65.487L315.514,61.827L314.219,61.18L305.676,65.451Z" style="fill:white;fill-rule:nonzero;"/>
            <path d="M312.35,68.788L317.805,71.516L319.03,70.904L314.87,68.824L317.378,67.57L320.928,69.345L322.077,68.771L318.526,66.995L320.963,65.777L325.124,67.857L326.348,67.244L320.893,64.517L312.35,68.788Z" style="fill:white;fill-rule:nonzero;"/>
            <path d="M323.594,71.352L328.563,70.104L328.587,70.116L326.09,72.6L323.594,71.352ZM324.063,74.645L325.428,75.327L330.866,69.503L329.782,68.961L318.133,71.68L319.504,72.366L322.071,71.739L325.311,73.359L324.063,74.645Z" style="fill:white;fill-rule:nonzero;"/>
            <path d="M327.608,76.417L328.616,76.921L339.983,74.062L338.612,73.376L330.163,75.656L330.139,75.644L334.704,71.422L333.333,70.737L327.608,76.417Z" style="fill:white;fill-rule:nonzero;"/>
            <path d="M332.354,78.79L333.649,79.438L342.192,75.166L340.897,74.519L332.354,78.79Z" style="fill:white;fill-rule:nonzero;"/>
            <path d="M335.448,80.337L336.743,80.985L342.813,77.95L342.837,77.961L340.628,82.927L341.852,83.539L350.395,79.268L349.1,78.62L343.03,81.656L343.006,81.644L345.21,76.675L343.991,76.066L335.448,80.337Z" style="fill:white;fill-rule:nonzero;"/>
            <path d="M349.909,84.087L351.649,84.957L351.204,85.18C350.661,85.444 350.061,85.575 349.405,85.575C348.733,85.583 348.145,85.461 347.641,85.209C347.337,85.057 347.139,84.894 347.049,84.72C346.936,84.554 346.899,84.393 346.938,84.237C346.954,84.061 347.083,83.885 347.325,83.709C347.559,83.53 348.096,83.23 348.936,82.81C349.776,82.39 350.379,82.119 350.747,81.998C351.09,81.881 351.438,81.819 351.79,81.811C352.102,81.791 352.428,81.808 352.768,81.861C353.1,81.913 353.422,82.014 353.735,82.162C354.141,82.373 354.374,82.609 354.432,82.868C354.467,83.128 354.366,83.37 354.128,83.595L355.499,84.281C356.077,83.855 356.348,83.391 356.313,82.889C356.274,82.389 355.846,81.931 355.03,81.515C354.35,81.183 353.629,80.983 352.868,80.914C352.102,80.84 351.419,80.85 350.817,80.944C350.481,80.983 350.114,81.071 349.715,81.207C349.321,81.346 348.628,81.663 347.635,82.159C346.659,82.648 346.028,82.992 345.743,83.194C345.59,83.301 345.477,83.397 345.403,83.481C345.337,83.565 345.27,83.655 345.204,83.75C345.016,84.051 345.001,84.391 345.157,84.77C345.294,85.151 345.69,85.513 346.346,85.857C347.233,86.284 348.251,86.498 349.399,86.498C350.547,86.494 351.557,86.283 352.428,85.863L354.169,84.992L351.133,83.475L349.909,84.087Z" style="fill:white;fill-rule:nonzero;"/>
            <path d="M280,25.277L104,113.277L232,177.277L408,89.277L280,25.277Z" style="fill:rgb(64,192,87);fill-opacity:0.9;"/>
            <path id="ENTERING" d="M292.377,45.025L297.832,47.753L299.056,47.14L294.896,45.06L297.404,43.806L300.955,45.582L302.103,45.008L298.552,43.232L300.99,42.013L305.15,44.094L306.375,43.481L300.92,40.754L292.377,45.025Z" style="fill:white;fill-rule:nonzero;"/>
            <path d="M299.05,48.362L300.345,49.01L306.416,45.974L306.439,45.986L304.23,50.952L305.455,51.564L313.998,47.293L312.703,46.645L306.632,49.68L306.609,49.669L308.812,44.7L307.593,44.091L299.05,48.362Z" style="fill:white;fill-rule:nonzero;"/>
            <path d="M308.707,53.19L310.007,53.841L317.396,50.146L319.734,51.315L320.888,50.738L314.912,47.75L313.757,48.327L316.095,49.496L308.707,53.19Z" style="fill:white;fill-rule:nonzero;"/>
            <path d="M313.259,55.467L318.714,58.194L319.939,57.582L315.779,55.502L318.287,54.248L321.838,56.023L322.986,55.449L319.435,53.674L321.873,52.455L326.033,54.535L327.257,53.923L321.802,51.195L313.259,55.467Z" style="fill:white;fill-rule:nonzero;"/>
            <path d="M328.617,55.757L330.644,56.77C331.058,56.977 331.287,57.179 331.33,57.377C331.408,57.615 331.228,57.847 330.791,58.074C330.42,58.26 329.988,58.356 329.496,58.364C328.98,58.38 328.476,58.268 327.984,58.03L326.027,57.052L328.617,55.757ZM319.933,58.804L321.228,59.451L324.879,57.626L326.531,58.452L324.644,61.159L326.185,61.929L327.996,59.044C329.5,59.378 330.839,59.259 332.015,58.686C332.781,58.28 333.105,57.835 332.988,57.35C332.914,56.938 332.521,56.554 331.81,56.199L328.476,54.532L319.933,58.804Z" style="fill:white;fill-rule:nonzero;"/>
            <path d="M327.252,62.463L328.546,63.11L337.089,58.839L335.795,58.191L327.252,62.463Z" style="fill:white;fill-rule:nonzero;"/>
            <path d="M330.345,64.01L331.64,64.657L337.711,61.622L337.734,61.634L335.525,66.599L336.75,67.212L345.293,62.94L343.998,62.293L337.927,65.328L337.904,65.316L340.107,60.347L338.888,59.738L330.345,64.01Z" style="fill:white;fill-rule:nonzero;"/>
            <path d="M344.806,67.76L346.546,68.63L346.101,68.852C345.558,69.116 344.959,69.248 344.302,69.248C343.63,69.256 343.043,69.134 342.539,68.882C342.234,68.729 342.037,68.566 341.947,68.392C341.834,68.226 341.796,68.065 341.836,67.909C341.851,67.733 341.98,67.557 342.222,67.382C342.457,67.202 342.994,66.902 343.834,66.482C344.673,66.062 345.277,65.792 345.644,65.671C345.988,65.554 346.336,65.491 346.687,65.483C347,65.464 347.326,65.48 347.666,65.533C347.998,65.586 348.32,65.686 348.632,65.835C349.039,66.046 349.271,66.281 349.33,66.541C349.365,66.801 349.263,67.043 349.025,67.267L350.396,67.953C350.974,67.527 351.246,67.063 351.211,66.561C351.171,66.061 350.744,65.603 349.927,65.187C349.248,64.855 348.527,64.655 347.765,64.587C347,64.513 346.316,64.522 345.714,64.616C345.379,64.655 345.011,64.743 344.613,64.88C344.218,65.018 343.525,65.336 342.533,65.832C341.556,66.32 340.925,66.665 340.64,66.866C340.488,66.973 340.375,67.069 340.3,67.153C340.234,67.237 340.168,67.327 340.101,67.423C339.914,67.723 339.898,68.063 340.054,68.442C340.191,68.823 340.588,69.185 341.244,69.529C342.13,69.957 343.148,70.171 344.296,70.171C345.445,70.167 346.455,69.955 347.326,69.535L349.066,68.665L346.031,67.147L344.806,67.76Z" style="fill:white;fill-rule:nonzero;"/>
            <g>
                <path d="M280,9.277L112.386,93.084C107.757,95.398 108.697,99.625 114.482,102.518L221.518,156.036C227.303,158.929 235.757,159.398 240.386,157.084L408,73.277L280,9.277Z" style="fill:white;fill-opacity:0.15;stroke:black;stroke-width:1px;"/>
                <path d="M408,73.277L415.614,69.47C420.243,67.156 419.303,62.929 413.518,60.036L306.482,6.518C300.697,3.625 292.243,3.156 287.614,5.47L280,9.277L408,73.277Z" style="fill:rgb(233,236,239);stroke:black;stroke-width:1px;"/>
                <path d="M319.778,25.464L320.856,26.003L328.649,23.741L328.672,23.753L324.143,27.646L325.227,28.188L335.903,24.983L334.538,24.301L327.12,26.662L327.096,26.65L331.514,22.789L330.577,22.32L322.848,24.526L322.825,24.515L327.553,20.809L326.188,20.126L319.778,25.464Z" style="fill-rule:nonzero;"/>
                <path d="M328.397,29.773L329.692,30.421L338.235,26.149L336.94,25.502L328.397,29.773Z" style="fill-rule:nonzero;"/>
                <path d="M331.491,31.32L332.786,31.968L338.856,28.933L338.879,28.944L336.671,33.91L337.895,34.522L346.438,30.251L345.143,29.603L339.073,32.639L339.049,32.627L341.253,27.658L340.034,27.049L331.491,31.32Z" style="fill-rule:nonzero;"/>
                <path d="M339.7,35.425L342.6,36.875C343.241,37.195 343.922,37.395 344.645,37.475C345.352,37.567 346.032,37.575 346.684,37.499C346.93,37.47 347.157,37.436 347.364,37.399C347.571,37.358 347.782,37.3 347.997,37.224C348.426,37.075 349.1,36.771 350.018,36.312C350.881,35.881 351.467,35.566 351.776,35.369C352.073,35.166 352.278,34.933 352.391,34.669C352.766,33.903 352.379,33.229 351.231,32.647L348.243,31.153L339.7,35.425ZM348.313,32.413L349.86,33.186C350.532,33.507 350.799,33.881 350.663,34.309C350.639,34.496 350.491,34.682 350.217,34.865C349.932,35.043 349.419,35.317 348.676,35.688C347.915,36.069 347.378,36.32 347.065,36.441C346.745,36.562 346.421,36.633 346.092,36.652C345.268,36.736 344.493,36.597 343.766,36.233L342.219,35.46L348.313,32.413Z" style="fill-rule:nonzero;"/>
                <path d="M351.237,36.922C350.26,37.41 349.629,37.755 349.344,37.956C349.192,38.063 349.079,38.159 349.004,38.243C348.938,38.327 348.872,38.417 348.805,38.513C348.618,38.813 348.602,39.153 348.758,39.532C348.895,39.913 349.292,40.275 349.948,40.619C350.643,40.951 351.374,41.152 352.139,41.223C352.889,41.297 353.561,41.285 354.155,41.187C354.506,41.156 354.881,41.068 355.28,40.924C355.674,40.777 356.36,40.46 357.337,39.972C358.329,39.475 358.967,39.131 359.253,38.937C359.534,38.742 359.706,38.557 359.768,38.381C359.963,38.084 359.991,37.746 359.85,37.367C359.71,36.984 359.303,36.621 358.631,36.277C357.952,35.945 357.231,35.745 356.469,35.677C355.704,35.602 355.02,35.612 354.419,35.706C354.083,35.745 353.715,35.833 353.317,35.97C352.922,36.108 352.229,36.426 351.237,36.922ZM352.538,37.572C353.378,37.152 353.981,36.882 354.348,36.761C354.692,36.643 355.04,36.581 355.391,36.573C355.704,36.554 356.03,36.57 356.37,36.623C356.702,36.676 357.024,36.776 357.337,36.925C357.637,37.083 357.844,37.247 357.958,37.417C358.055,37.583 358.081,37.742 358.034,37.894C358.018,38.07 357.897,38.246 357.671,38.422C357.424,38.603 356.881,38.904 356.042,39.324C355.202,39.744 354.604,40.014 354.249,40.133C353.889,40.25 353.534,40.312 353.182,40.32C352.878,40.344 352.563,40.329 352.239,40.276C351.883,40.227 351.551,40.126 351.243,39.972C350.938,39.819 350.741,39.656 350.651,39.482C350.538,39.316 350.501,39.155 350.54,38.999C350.555,38.823 350.684,38.647 350.926,38.472C351.161,38.292 351.698,37.992 352.538,37.572Z" style="fill-rule:nonzero;"/>
                <path d="M355.725,43.437L356.803,43.976L364.596,41.715L364.62,41.726L360.09,45.62L361.174,46.162L371.85,42.957L370.485,42.274L363.067,44.636L363.044,44.624L367.462,40.763L366.524,40.294L358.796,42.5L358.772,42.488L363.501,38.782L362.135,38.1L355.725,43.437Z" style="fill-rule:nonzero;"/>
            </g>
            <path d="M392,73.277C390.844,72.699 389.154,72.605 388.23,73.067L326.571,103.897C325.646,104.359 325.834,105.204 326.99,105.782C328.146,106.36 329.836,106.454 330.76,105.991L392.419,75.162C393.344,74.7 393.156,73.855 392,73.277Z" style="fill:rgb(235,235,235);stroke:black;stroke-width:1px;"/>
        </g>
    </g>
</svg>
